<mxfile host="app.diagrams.net" agent="Mozilla/5.0 (Windows NT 10.0; Win64; x64) AppleWebKit/537.36 (KHTML, like Gecko) Chrome/131.0.0.0 Safari/537.36" version="25.0.1">
  <diagram id="C5RBs43oDa-KdzZeNtuy" name="Page-1">
    <mxGraphModel dx="1050" dy="530" grid="1" gridSize="10" guides="1" tooltips="1" connect="1" arrows="1" fold="1" page="1" pageScale="1" pageWidth="827" pageHeight="1169" math="0" shadow="0">
      <root>
        <mxCell id="WIyWlLk6GJQsqaUBKTNV-0" />
        <mxCell id="WIyWlLk6GJQsqaUBKTNV-1" parent="WIyWlLk6GJQsqaUBKTNV-0" />
        <mxCell id="jE9cLg9HKMaNHFkK_BSn-0" value="Start" style="ellipse;whiteSpace=wrap;html=1;" vertex="1" parent="WIyWlLk6GJQsqaUBKTNV-1">
          <mxGeometry x="197.5" y="30" width="85" height="50" as="geometry" />
        </mxCell>
        <mxCell id="jE9cLg9HKMaNHFkK_BSn-7" value="" style="edgeStyle=orthogonalEdgeStyle;rounded=0;orthogonalLoop=1;jettySize=auto;html=1;" edge="1" parent="WIyWlLk6GJQsqaUBKTNV-1" source="jE9cLg9HKMaNHFkK_BSn-4" target="jE9cLg9HKMaNHFkK_BSn-6">
          <mxGeometry relative="1" as="geometry" />
        </mxCell>
        <mxCell id="jE9cLg9HKMaNHFkK_BSn-4" value="integer[n]" style="whiteSpace=wrap;html=1;" vertex="1" parent="WIyWlLk6GJQsqaUBKTNV-1">
          <mxGeometry x="180" y="260" width="120" height="60" as="geometry" />
        </mxCell>
        <mxCell id="jE9cLg9HKMaNHFkK_BSn-12" value="" style="edgeStyle=orthogonalEdgeStyle;rounded=0;orthogonalLoop=1;jettySize=auto;html=1;" edge="1" parent="WIyWlLk6GJQsqaUBKTNV-1" source="jE9cLg9HKMaNHFkK_BSn-6" target="jE9cLg9HKMaNHFkK_BSn-11">
          <mxGeometry relative="1" as="geometry" />
        </mxCell>
        <mxCell id="jE9cLg9HKMaNHFkK_BSn-6" value="for(int i=0; i&amp;lt;n; i++)" style="rhombus;whiteSpace=wrap;html=1;" vertex="1" parent="WIyWlLk6GJQsqaUBKTNV-1">
          <mxGeometry x="180" y="360" width="120" height="80" as="geometry" />
        </mxCell>
        <mxCell id="jE9cLg9HKMaNHFkK_BSn-8" value="" style="edgeStyle=orthogonalEdgeStyle;rounded=0;orthogonalLoop=1;jettySize=auto;html=1;" edge="1" parent="WIyWlLk6GJQsqaUBKTNV-1" source="jE9cLg9HKMaNHFkK_BSn-0" target="jE9cLg9HKMaNHFkK_BSn-3">
          <mxGeometry relative="1" as="geometry">
            <mxPoint x="240" y="80" as="sourcePoint" />
            <mxPoint x="237.5" y="160" as="targetPoint" />
          </mxGeometry>
        </mxCell>
        <mxCell id="jE9cLg9HKMaNHFkK_BSn-9" value="" style="edgeStyle=orthogonalEdgeStyle;rounded=0;orthogonalLoop=1;jettySize=auto;html=1;" edge="1" parent="WIyWlLk6GJQsqaUBKTNV-1" source="jE9cLg9HKMaNHFkK_BSn-3" target="jE9cLg9HKMaNHFkK_BSn-4">
          <mxGeometry relative="1" as="geometry" />
        </mxCell>
        <mxCell id="jE9cLg9HKMaNHFkK_BSn-3" value="Nhập số phần tử mảng n" style="shape=parallelogram;perimeter=parallelogramPerimeter;whiteSpace=wrap;html=1;fixedSize=1;" vertex="1" parent="WIyWlLk6GJQsqaUBKTNV-1">
          <mxGeometry x="180" y="140" width="120" height="60" as="geometry" />
        </mxCell>
        <mxCell id="jE9cLg9HKMaNHFkK_BSn-14" value="" style="edgeStyle=orthogonalEdgeStyle;rounded=0;orthogonalLoop=1;jettySize=auto;html=1;" edge="1" parent="WIyWlLk6GJQsqaUBKTNV-1" source="jE9cLg9HKMaNHFkK_BSn-11" target="jE9cLg9HKMaNHFkK_BSn-13">
          <mxGeometry relative="1" as="geometry" />
        </mxCell>
        <mxCell id="jE9cLg9HKMaNHFkK_BSn-11" value="n giá trị trong mảng lần lượt là:" style="shape=parallelogram;perimeter=parallelogramPerimeter;whiteSpace=wrap;html=1;fixedSize=1;" vertex="1" parent="WIyWlLk6GJQsqaUBKTNV-1">
          <mxGeometry x="130" y="500" width="220" height="60" as="geometry" />
        </mxCell>
        <mxCell id="jE9cLg9HKMaNHFkK_BSn-16" value="" style="edgeStyle=orthogonalEdgeStyle;rounded=0;orthogonalLoop=1;jettySize=auto;html=1;" edge="1" parent="WIyWlLk6GJQsqaUBKTNV-1" source="jE9cLg9HKMaNHFkK_BSn-13" target="jE9cLg9HKMaNHFkK_BSn-15">
          <mxGeometry relative="1" as="geometry" />
        </mxCell>
        <mxCell id="jE9cLg9HKMaNHFkK_BSn-13" value="integer[i]" style="whiteSpace=wrap;html=1;" vertex="1" parent="WIyWlLk6GJQsqaUBKTNV-1">
          <mxGeometry x="180" y="610" width="120" height="60" as="geometry" />
        </mxCell>
        <mxCell id="jE9cLg9HKMaNHFkK_BSn-18" value="" style="edgeStyle=orthogonalEdgeStyle;rounded=0;orthogonalLoop=1;jettySize=auto;html=1;" edge="1" parent="WIyWlLk6GJQsqaUBKTNV-1" source="jE9cLg9HKMaNHFkK_BSn-15">
          <mxGeometry relative="1" as="geometry">
            <mxPoint x="240" y="840" as="targetPoint" />
          </mxGeometry>
        </mxCell>
        <mxCell id="jE9cLg9HKMaNHFkK_BSn-15" value="max = integer[0]" style="whiteSpace=wrap;html=1;" vertex="1" parent="WIyWlLk6GJQsqaUBKTNV-1">
          <mxGeometry x="180" y="720" width="120" height="60" as="geometry" />
        </mxCell>
        <mxCell id="jE9cLg9HKMaNHFkK_BSn-21" value="" style="edgeStyle=orthogonalEdgeStyle;rounded=0;orthogonalLoop=1;jettySize=auto;html=1;" edge="1" parent="WIyWlLk6GJQsqaUBKTNV-1" source="jE9cLg9HKMaNHFkK_BSn-19" target="jE9cLg9HKMaNHFkK_BSn-20">
          <mxGeometry relative="1" as="geometry" />
        </mxCell>
        <mxCell id="jE9cLg9HKMaNHFkK_BSn-19" value="for(int i=0; i&amp;lt;n; i++)" style="rhombus;whiteSpace=wrap;html=1;" vertex="1" parent="WIyWlLk6GJQsqaUBKTNV-1">
          <mxGeometry x="180" y="840" width="120" height="80" as="geometry" />
        </mxCell>
        <mxCell id="jE9cLg9HKMaNHFkK_BSn-23" value="" style="edgeStyle=orthogonalEdgeStyle;rounded=0;orthogonalLoop=1;jettySize=auto;html=1;" edge="1" parent="WIyWlLk6GJQsqaUBKTNV-1" source="jE9cLg9HKMaNHFkK_BSn-20" target="jE9cLg9HKMaNHFkK_BSn-22">
          <mxGeometry relative="1" as="geometry" />
        </mxCell>
        <mxCell id="jE9cLg9HKMaNHFkK_BSn-33" value="" style="edgeStyle=orthogonalEdgeStyle;rounded=0;orthogonalLoop=1;jettySize=auto;html=1;" edge="1" parent="WIyWlLk6GJQsqaUBKTNV-1" source="jE9cLg9HKMaNHFkK_BSn-20" target="jE9cLg9HKMaNHFkK_BSn-32">
          <mxGeometry relative="1" as="geometry" />
        </mxCell>
        <mxCell id="jE9cLg9HKMaNHFkK_BSn-20" value="max &amp;lt; integer[i]" style="rhombus;whiteSpace=wrap;html=1;" vertex="1" parent="WIyWlLk6GJQsqaUBKTNV-1">
          <mxGeometry x="180" y="980" width="120" height="80" as="geometry" />
        </mxCell>
        <mxCell id="jE9cLg9HKMaNHFkK_BSn-22" value="max = integer[i]" style="whiteSpace=wrap;html=1;" vertex="1" parent="WIyWlLk6GJQsqaUBKTNV-1">
          <mxGeometry x="380" y="990" width="120" height="60" as="geometry" />
        </mxCell>
        <mxCell id="jE9cLg9HKMaNHFkK_BSn-24" value="True" style="text;html=1;align=center;verticalAlign=middle;resizable=0;points=[];autosize=1;strokeColor=none;fillColor=none;" vertex="1" parent="WIyWlLk6GJQsqaUBKTNV-1">
          <mxGeometry x="310" y="1000" width="50" height="30" as="geometry" />
        </mxCell>
        <mxCell id="jE9cLg9HKMaNHFkK_BSn-28" value="" style="endArrow=none;html=1;rounded=0;" edge="1" parent="WIyWlLk6GJQsqaUBKTNV-1">
          <mxGeometry width="50" height="50" relative="1" as="geometry">
            <mxPoint x="90" y="1020" as="sourcePoint" />
            <mxPoint x="180" y="1020" as="targetPoint" />
          </mxGeometry>
        </mxCell>
        <mxCell id="jE9cLg9HKMaNHFkK_BSn-29" value="" style="endArrow=none;html=1;rounded=0;" edge="1" parent="WIyWlLk6GJQsqaUBKTNV-1">
          <mxGeometry width="50" height="50" relative="1" as="geometry">
            <mxPoint x="90" y="1020" as="sourcePoint" />
            <mxPoint x="90" y="750" as="targetPoint" />
          </mxGeometry>
        </mxCell>
        <mxCell id="jE9cLg9HKMaNHFkK_BSn-30" value="" style="endArrow=classic;html=1;rounded=0;entryX=0;entryY=0.5;entryDx=0;entryDy=0;" edge="1" parent="WIyWlLk6GJQsqaUBKTNV-1" target="jE9cLg9HKMaNHFkK_BSn-15">
          <mxGeometry width="50" height="50" relative="1" as="geometry">
            <mxPoint x="90" y="750" as="sourcePoint" />
            <mxPoint x="140" y="700" as="targetPoint" />
          </mxGeometry>
        </mxCell>
        <mxCell id="jE9cLg9HKMaNHFkK_BSn-31" value="False" style="text;html=1;align=center;verticalAlign=middle;resizable=0;points=[];autosize=1;strokeColor=none;fillColor=none;" vertex="1" parent="WIyWlLk6GJQsqaUBKTNV-1">
          <mxGeometry x="110" y="1000" width="50" height="30" as="geometry" />
        </mxCell>
        <mxCell id="jE9cLg9HKMaNHFkK_BSn-35" value="" style="edgeStyle=orthogonalEdgeStyle;rounded=0;orthogonalLoop=1;jettySize=auto;html=1;" edge="1" parent="WIyWlLk6GJQsqaUBKTNV-1" source="jE9cLg9HKMaNHFkK_BSn-32" target="jE9cLg9HKMaNHFkK_BSn-34">
          <mxGeometry relative="1" as="geometry" />
        </mxCell>
        <mxCell id="jE9cLg9HKMaNHFkK_BSn-32" value="Số lớn nhất trong mảng đó là: max" style="shape=parallelogram;perimeter=parallelogramPerimeter;whiteSpace=wrap;html=1;fixedSize=1;" vertex="1" parent="WIyWlLk6GJQsqaUBKTNV-1">
          <mxGeometry x="180" y="1120" width="120" height="60" as="geometry" />
        </mxCell>
        <mxCell id="jE9cLg9HKMaNHFkK_BSn-34" value="End" style="ellipse;whiteSpace=wrap;html=1;" vertex="1" parent="WIyWlLk6GJQsqaUBKTNV-1">
          <mxGeometry x="200" y="1230" width="80" height="60" as="geometry" />
        </mxCell>
      </root>
    </mxGraphModel>
  </diagram>
</mxfile>
